<?xml version="1.0" encoding="UTF-8"?>
<svg xmlns="http://www.w3.org/2000/svg" xmlns:xlink="http://www.w3.org/1999/xlink" width="104px" height="97px" viewBox="0 0 78 73" version="1.1">
<defs>
<clipPath id="clip1">
  <path d="M 0 0 L 74.910156 0 L 74.910156 67 L 0 67 Z M 0 0 "/>
</clipPath>
</defs>
<g id="surface1">
<g clip-path="url(#clip1)" clip-rule="nonzero">
<path style=" stroke:none;fill-rule:nonzero;fill:rgb(33.333334%,0%,83.137256%);fill-opacity:1;" d="M 56.96875 66.097656 L 18.988281 66.097656 L 0 33.046875 L 18.988281 0 L 56.96875 0 L 75.957031 33.046875 Z M 56.96875 66.097656 "/>
</g>
<path style=" stroke:none;fill-rule:nonzero;fill:rgb(100%,33.333334%,60.000002%);fill-opacity:1;" d="M 11.460938 13.09375 L 7.527344 19.9375 L 9.226562 20.921875 L 9.898438 24.410156 L 14.050781 25.070312 L 13.757812 23.550781 L 18.664062 26.398438 L 19.355469 30 L 23.507812 30.65625 L 23.195312 29.023438 L 28.101562 31.871094 L 28.816406 35.585938 L 32.964844 36.242188 L 32.628906 34.5 L 37.539062 37.347656 L 38.273438 41.171875 L 42.425781 41.828125 L 42.070312 39.972656 L 46.976562 42.820312 L 47.734375 46.757812 L 51.882812 47.417969 L 51.503906 45.449219 L 56.414062 48.296875 L 57.191406 52.34375 L 61.34375 53.003906 L 60.941406 50.921875 L 64.496094 52.984375 L 68.429688 46.140625 Z M 11.460938 13.09375 "/>
<path style=" stroke:none;fill-rule:nonzero;fill:rgb(0%,0%,0%);fill-opacity:1;" d="M 56.234375 35.9375 C 54.628906 36.128906 52.988281 36.878906 52.042969 38.222656 C 51.414062 39.480469 52.746094 41.265625 54.144531 40.773438 C 55.125 40.410156 55.957031 39.433594 57.09375 39.695312 C 57.667969 39.671875 58.425781 40.292969 57.976562 40.875 C 57.324219 41.613281 56.195312 41.480469 55.324219 41.796875 C 54.367188 42.042969 53.503906 43.003906 53.804688 44.039062 C 54.039062 44.976562 55.046875 45.46875 55.953125 45.421875 C 56.960938 45.535156 58.167969 46.144531 58.246094 47.285156 C 58.402344 48.253906 57.453125 49.007812 56.546875 48.945312 C 55.761719 49.007812 55.078125 48.515625 54.773438 47.808594 C 54.15625 46.878906 52.695312 46.71875 51.933594 47.570312 C 51.242188 48.25 51.25 49.382812 51.789062 50.148438 C 53.054688 52.417969 56.078125 53.171875 58.445312 52.394531 C 60.9375 51.539062 62.539062 48.683594 61.921875 46.085938 C 61.730469 45.140625 61.246094 44.242188 60.523438 43.601562 C 62.542969 41.609375 61.898438 37.664062 59.257812 36.535156 C 58.320312 36.089844 57.273438 35.910156 56.234375 35.9375 Z M 56.234375 35.9375 "/>
<path style=" stroke:none;fill-rule:nonzero;fill:rgb(100%,100%,100%);fill-opacity:1;" d="M 55.390625 35.011719 C 53.910156 35.175781 52.4375 35.890625 51.46875 37.019531 C 50.71875 38.132812 51.921875 39.910156 53.230469 39.46875 C 54.203125 39.117188 55.003906 38.140625 56.128906 38.371094 C 56.804688 38.347656 57.675781 38.859375 57.417969 39.640625 C 57.035156 40.539062 55.871094 40.496094 55.074219 40.738281 C 54.148438 40.871094 53.070312 41.457031 53.105469 42.527344 C 53.109375 43.464844 54.042969 44.128906 54.917969 44.078125 C 56.039062 44.1875 57.375 44.722656 57.570312 45.972656 C 57.789062 46.851562 57.191406 47.761719 56.324219 47.929688 C 55.425781 48.1875 54.296875 47.921875 53.898438 46.992188 C 53.496094 46.296875 52.636719 45.863281 51.855469 46.183594 C 50.890625 46.507812 50.433594 47.765625 50.96875 48.632812 C 51.933594 50.808594 54.585938 51.683594 56.808594 51.273438 C 59.433594 50.820312 61.371094 48.085938 60.949219 45.429688 C 60.839844 44.296875 60.265625 43.179688 59.382812 42.488281 C 61.019531 41.085938 61.042969 38.320312 59.746094 36.679688 C 58.707031 35.433594 56.96875 34.96875 55.390625 35.011719 Z M 55.390625 35.011719 "/>
<path style=" stroke:none;fill-rule:nonzero;fill:rgb(0%,0%,0%);fill-opacity:1;" d="M 55.445312 35.621094 C 54.246094 35.777344 53.074219 36.359375 52.195312 37.1875 C 51.441406 37.851562 52.304688 39.273438 53.226562 38.898438 C 54.148438 38.410156 55.035156 37.609375 56.164062 37.804688 C 57.023438 37.8125 58.085938 38.273438 58.113281 39.269531 C 58.246094 40.304688 57.207031 40.96875 56.3125 41.09375 C 55.386719 41.273438 53.304688 41.53125 53.890625 42.976562 C 54.445312 43.769531 55.601562 43.410156 56.382812 43.824219 C 57.523438 44.167969 58.339844 45.304688 58.265625 46.511719 C 58.261719 47.917969 56.722656 48.820312 55.4375 48.605469 C 54.636719 48.570312 53.878906 48.144531 53.519531 47.410156 C 53.261719 46.769531 52.453125 46.476562 51.894531 46.894531 C 51.175781 47.3125 51.390625 48.28125 51.804688 48.835938 C 52.976562 50.667969 55.5625 51.203125 57.539062 50.496094 C 59.480469 49.765625 60.75 47.636719 60.445312 45.574219 C 60.371094 44.273438 59.542969 43.082031 58.378906 42.511719 C 59.558594 42 60.195312 40.726562 60.140625 39.476562 C 60.230469 37.976562 59.292969 36.515625 57.878906 36.023438 C 57.105469 35.710938 56.273438 35.609375 55.445312 35.621094 Z M 55.445312 35.621094 "/>
<path style=" stroke:none;fill-rule:nonzero;fill:rgb(100%,66.666669%,80.000001%);fill-opacity:1;" d="M 11.671875 53.355469 L 39.308594 37.320312 L 45.269531 33.863281 L 68.640625 20.304688 L 64.292969 12.742188 C 64.230469 12.785156 64.167969 12.824219 64.101562 12.863281 C 63.332031 13.308594 62.457031 13.371094 61.699219 13.105469 L 61.671875 13.121094 C 60.851562 12.699219 59.816406 12.703125 58.933594 13.214844 C 58.046875 13.730469 57.527344 14.628906 57.480469 15.554688 L 57.433594 15.578125 C 57.285156 16.367188 56.792969 17.101562 56.027344 17.546875 C 55.257812 17.992188 54.378906 18.054688 53.625 17.789062 L 53.597656 17.804688 C 52.777344 17.386719 51.742188 17.386719 50.855469 17.902344 C 49.96875 18.414062 49.453125 19.3125 49.40625 20.238281 L 49.359375 20.265625 C 49.210938 21.054688 48.71875 21.785156 47.953125 22.230469 C 47.183594 22.675781 46.304688 22.738281 45.550781 22.472656 L 45.523438 22.488281 C 44.703125 22.070312 43.667969 22.070312 42.78125 22.585938 C 41.898438 23.097656 41.375 24 41.328125 24.921875 L 41.285156 24.949219 C 41.140625 25.71875 40.664062 26.441406 39.925781 26.886719 C 39.171875 27.308594 38.3125 27.359375 37.574219 27.101562 L 37.546875 27.117188 C 36.726562 26.699219 35.691406 26.699219 34.804688 27.214844 C 34.789062 27.222656 34.773438 27.230469 34.757812 27.242188 C 34.742188 27.25 34.722656 27.261719 34.707031 27.269531 C 34.398438 27.449219 34.132812 27.675781 33.917969 27.933594 L 33.9375 27.972656 C 33.585938 28.4375 33.378906 28.988281 33.351562 29.550781 L 33.308594 29.578125 C 33.160156 30.363281 32.667969 31.097656 31.898438 31.542969 C 31.132812 31.988281 30.253906 32.050781 29.5 31.785156 L 29.472656 31.800781 C 28.652344 31.382812 27.617188 31.382812 26.730469 31.898438 C 25.84375 32.410156 25.324219 33.3125 25.277344 34.234375 L 25.234375 34.261719 C 25.085938 35.050781 24.59375 35.785156 23.824219 36.226562 C 23.058594 36.671875 22.179688 36.734375 21.425781 36.46875 L 21.394531 36.488281 C 20.578125 36.066406 19.542969 36.066406 18.65625 36.582031 C 17.769531 37.09375 17.25 37.996094 17.203125 38.917969 L 17.160156 38.945312 C 17.007812 39.734375 16.519531 40.46875 15.75 40.914062 C 14.984375 41.355469 14.105469 41.417969 13.351562 41.152344 L 13.324219 41.171875 C 12.503906 40.75 11.46875 40.753906 10.582031 41.265625 C 9.695312 41.78125 9.175781 42.679688 9.128906 43.601562 L 9.085938 43.628906 C 8.933594 44.417969 8.441406 45.152344 7.675781 45.597656 C 7.558594 45.664062 7.4375 45.722656 7.316406 45.773438 Z M 11.671875 53.355469 "/>
<path style=" stroke:none;fill-rule:nonzero;fill:rgb(0%,0%,0%);fill-opacity:1;" d="M 20.3125 35.21875 C 18.226562 35.304688 16.398438 36.636719 15.152344 38.238281 C 14.570312 39.316406 15.414062 40.804688 16.644531 40.820312 C 18.292969 40.90625 19.035156 38.726562 20.71875 38.988281 C 21.226562 39.023438 21.863281 39.464844 21.574219 40.039062 C 20.898438 41.742188 19.039062 42.378906 17.722656 43.460938 C 16.082031 44.597656 14.917969 46.492188 14.972656 48.539062 C 14.90625 49.546875 15.007812 50.875 16.03125 51.367188 C 17.566406 51.96875 19.214844 51.308594 20.800781 51.429688 C 21.898438 51.386719 22.992188 51.597656 24.078125 51.613281 C 25.484375 51.429688 26.179688 49.308594 24.976562 48.441406 C 23.488281 47.234375 21.4375 47.640625 19.667969 47.699219 C 19.492188 47.648438 18.804688 47.949219 18.96875 47.644531 C 19.808594 46.066406 21.621094 45.46875 22.941406 44.40625 C 24.78125 43.078125 25.929688 40.625 25.308594 38.355469 C 24.703125 36.246094 22.367188 35.152344 20.3125 35.21875 Z M 20.3125 35.21875 "/>
<path style=" stroke:none;fill-rule:nonzero;fill:rgb(100%,100%,100%);fill-opacity:1;" d="M 19.472656 34.292969 C 17.5 34.359375 15.796875 35.636719 14.558594 37.082031 C 13.996094 37.9375 14.492188 39.242188 15.511719 39.445312 C 16.621094 39.761719 17.429688 38.710938 18.234375 38.140625 C 19 37.535156 20.265625 37.414062 20.914062 38.230469 C 21.15625 38.753906 20.757812 39.328125 20.507812 39.777344 C 19.546875 40.984375 18.074219 41.625 16.886719 42.582031 C 15.46875 43.621094 14.378906 45.230469 14.351562 47.042969 C 14.273438 48.035156 14.222656 49.304688 15.074219 49.976562 C 16.382812 50.644531 17.894531 50.085938 19.285156 50.121094 C 20.476562 50.09375 21.660156 50.136719 22.832031 50.296875 C 24.199219 50.492188 25.152344 48.527344 24.136719 47.582031 C 22.816406 46.359375 20.863281 46.6875 19.21875 46.75 C 18.769531 46.742188 18.09375 46.929688 17.789062 46.800781 C 18.367188 45.144531 20.128906 44.460938 21.441406 43.5 C 23.121094 42.460938 24.410156 40.671875 24.421875 38.632812 C 24.539062 37.175781 23.738281 35.734375 22.464844 35.0625 C 21.566406 34.519531 20.519531 34.253906 19.472656 34.292969 Z M 19.472656 34.292969 "/>
<path style=" stroke:none;fill-rule:nonzero;fill:rgb(0%,0%,0%);fill-opacity:1;" d="M 19.570312 34.90625 C 17.808594 34.953125 16.332031 36.125 15.175781 37.355469 C 14.773438 37.902344 15.054688 38.746094 15.722656 38.878906 C 16.5 39.132812 17.078125 38.3125 17.65625 37.925781 C 18.523438 37.167969 19.871094 36.722656 20.90625 37.421875 C 21.429688 37.683594 21.824219 38.25 21.613281 38.859375 C 21.355469 40.484375 19.804688 41.339844 18.574219 42.195312 C 17.074219 43.183594 15.449219 44.382812 15.128906 46.277344 C 14.976562 47.238281 14.828125 48.347656 15.25 49.25 C 15.574219 49.796875 16.273438 49.640625 16.800781 49.75 C 18.097656 49.59375 19.398438 49.511719 20.714844 49.570312 C 21.566406 49.449219 22.390625 49.773438 23.230469 49.71875 C 24.070312 49.546875 24.382812 48.28125 23.585938 47.847656 C 22.203125 46.914062 20.441406 47.402344 18.878906 47.390625 C 18.296875 47.453125 17.722656 47.496094 17.144531 47.582031 C 17.164062 45.921875 18.484375 44.726562 19.804688 43.949219 C 21.347656 42.9375 23.171875 41.890625 23.6875 39.980469 C 24.082031 38.644531 24.050781 36.949219 22.84375 36.019531 C 21.9375 35.253906 20.753906 34.855469 19.570312 34.90625 Z M 19.570312 34.90625 "/>
<path style=" stroke:none;fill-rule:nonzero;fill:rgb(78.431374%,74.509805%,71.764708%);fill-opacity:1;" d="M 32.496094 0 L 32.496094 66.097656 L 39.847656 66.097656 L 43.460938 64.5 L 39.878906 62.777344 L 43.460938 61.199219 L 39.878906 59.472656 L 43.460938 57.894531 L 39.878906 56.171875 L 43.460938 54.589844 L 39.878906 52.867188 L 43.460938 51.285156 L 39.878906 49.5625 L 43.460938 47.984375 L 39.878906 46.261719 L 43.460938 44.679688 L 39.878906 42.957031 L 43.460938 41.378906 L 39.878906 39.65625 L 43.460938 38.074219 L 39.878906 36.351562 L 43.460938 34.769531 L 39.878906 33.046875 L 43.460938 31.46875 L 39.878906 29.746094 L 43.460938 28.164062 L 39.878906 26.441406 L 43.460938 24.863281 L 39.878906 23.136719 L 43.460938 21.558594 L 39.878906 19.835938 L 43.460938 18.253906 L 39.878906 16.53125 L 43.460938 14.953125 L 39.878906 13.230469 L 43.460938 11.648438 L 39.878906 9.925781 L 43.460938 8.34375 L 39.878906 6.621094 L 43.460938 5.042969 L 39.878906 3.316406 L 43.460938 1.738281 L 39.847656 0 Z M 32.496094 0 "/>
<path style=" stroke:none;fill-rule:nonzero;fill:rgb(0%,0%,0%);fill-opacity:1;" d="M 37.96875 4.464844 C 36.324219 4.578125 35.414062 6.136719 34.101562 6.90625 C 33.191406 7.582031 32.949219 9.09375 33.847656 9.878906 C 34.304688 10.320312 35.007812 10.523438 35.617188 10.304688 C 35.570312 12.667969 35.640625 15.03125 35.601562 17.398438 C 34.550781 17.359375 33.308594 17.980469 33.230469 19.136719 C 33.078125 20.285156 34.269531 21.238281 35.367188 21.066406 C 36.90625 21.101562 38.476562 21.199219 39.996094 20.980469 C 41.355469 20.472656 41.558594 18.261719 40.210938 17.605469 C 39.929688 17.382812 39.410156 17.457031 39.242188 17.253906 C 39.183594 13.394531 39.394531 9.53125 39.40625 5.675781 C 39.289062 4.988281 38.6875 4.398438 37.96875 4.464844 Z M 37.96875 4.464844 "/>
<path style=" stroke:none;fill-rule:nonzero;fill:rgb(100%,100%,100%);fill-opacity:1;" d="M 37.066406 3.546875 C 35.535156 3.6875 34.691406 5.167969 33.457031 5.878906 C 32.667969 6.441406 32.296875 7.675781 33 8.453125 C 33.445312 9.042969 34.363281 9.277344 34.976562 8.863281 C 34.914062 11.394531 35 13.9375 34.949219 16.476562 C 33.996094 16.417969 32.765625 16.816406 32.609375 17.894531 C 32.355469 18.933594 33.390625 19.871094 34.398438 19.746094 C 35.902344 19.8125 37.417969 19.8125 38.914062 19.726562 C 40.148438 19.414062 40.527344 17.566406 39.492188 16.804688 C 39.132812 16.511719 38.65625 16.417969 38.203125 16.429688 C 38.160156 12.546875 38.304688 8.65625 38.394531 4.785156 C 38.355469 4.085938 37.8125 3.441406 37.066406 3.546875 Z M 37.066406 3.546875 "/>
<path style=" stroke:none;fill-rule:nonzero;fill:rgb(0%,0%,0%);fill-opacity:1;" d="M 37.097656 4.164062 C 35.886719 4.378906 35.183594 5.550781 34.183594 6.164062 C 33.550781 6.519531 32.957031 7.378906 33.503906 8.050781 C 33.808594 8.503906 34.472656 8.6875 34.878906 8.265625 C 35.289062 7.988281 35.816406 7.449219 35.628906 8.316406 C 35.628906 11.246094 35.628906 14.175781 35.628906 17.105469 C 34.847656 17.097656 33.691406 16.96875 33.316406 17.839844 C 33.070312 18.421875 33.480469 19.085938 34.09375 19.136719 C 35.605469 19.289062 37.152344 19.183594 38.675781 19.203125 C 39.625 19.128906 39.921875 17.710938 39.113281 17.222656 C 38.695312 16.949219 38.171875 17.082031 37.699219 17.050781 C 37.664062 13.160156 37.746094 9.269531 37.882812 5.378906 C 37.9375 4.917969 37.886719 4.113281 37.246094 4.160156 C 37.195312 4.160156 37.144531 4.152344 37.097656 4.164062 Z M 37.097656 4.164062 "/>
</g>
</svg>
